<?xml version="1.0" standalone="no"?>
<!DOCTYPE svg PUBLIC "-//W3C//DTD SVG 20010904//EN"
 "http://www.w3.org/TR/2001/REC-SVG-20010904/DTD/svg10.dtd">
<svg version="1.0" xmlns="http://www.w3.org/2000/svg"
 width="1292.000000pt" height="1292.000000pt" viewBox="0 0 1292.000000 1292.000000"
 preserveAspectRatio="xMidYMid meet">
<metadata>
Created by potrace 1.11, written by Peter Selinger 2001-2013
</metadata>
<g transform="translate(0.000000,1292.000000) scale(0.100000,-0.100000)"
fill="#000000" stroke="none">
<path d="M6297 12914 c-1 -1 -56 -5 -122 -9 -124 -7 -143 -9 -235 -19 -71 -8
-124 -16 -210 -31 -8 -1 -35 -6 -60 -10 -69 -11 -77 -13 -164 -34 -44 -11 -92
-22 -106 -25 -24 -5 -162 -42 -188 -51 -7 -2 -14 -5 -17 -5 -3 0 -24 -8 -47
-16 -24 -9 -51 -17 -60 -19 -9 -2 -26 -9 -37 -15 -12 -6 -21 -8 -21 -4 0 3 -7
1 -15 -6 -8 -7 -15 -9 -15 -5 0 4 -6 3 -12 -3 -7 -6 -42 -20 -77 -32 -35 -12
-75 -29 -90 -36 -14 -8 -29 -14 -33 -14 -16 0 -293 -134 -398 -192 -128 -71
-248 -144 -272 -166 -10 -8 -18 -11 -18 -6 0 5 -4 4 -8 -2 -4 -6 -29 -26 -57
-44 -53 -36 -226 -163 -260 -192 -270 -224 -449 -401 -632 -623 -101 -123
-227 -291 -222 -297 2 -2 -7 -15 -19 -29 -28 -32 -162 -246 -162 -258 0 -5 -3
-11 -7 -13 -5 -1 -21 -30 -38 -63 -16 -33 -33 -62 -36 -65 -11 -10 -139 -280
-139 -295 0 -8 -4 -15 -10 -15 -5 0 -10 -6 -10 -14 0 -12 -18 -59 -52 -136 -6
-14 -13 -32 -14 -40 -2 -8 -8 -23 -13 -35 -6 -11 -29 -78 -51 -150 -62 -195
-68 -218 -74 -245 -2 -14 -14 -63 -25 -110 -11 -47 -23 -98 -25 -115 -3 -16
-8 -41 -11 -55 -16 -80 -36 -204 -34 -218 1 -10 -1 -24 -4 -32 -4 -8 -9 -42
-12 -75 -2 -33 -8 -96 -12 -140 -10 -102 -10 -4881 -1 -4995 4 -47 9 -98 12
-115 6 -43 18 -145 21 -180 2 -16 4 -34 4 -38 1 -9 94 52 99 65 2 4 8 8 13 8
6 0 15 5 22 11 7 5 50 37 97 69 47 33 92 64 100 70 144 101 246 175 248 181 2
5 8 9 13 9 6 0 56 33 112 73 56 40 125 88 152 107 28 18 53 38 57 44 5 7 8 7
8 1 0 -6 3 -6 8 1 4 6 72 56 152 112 80 55 150 105 155 110 6 5 24 17 40 28
17 10 35 22 40 27 37 30 136 97 142 97 15 1 54 49 54 67 0 10 -1 48 -2 85 -1
36 2 71 5 77 4 6 2 19 -4 30 -5 11 -6 22 -1 25 4 3 5 23 2 43 -4 21 -4 54 -1
73 3 19 3 50 -1 68 -4 17 -4 32 0 32 7 0 5 516 -3 536 -3 8 -2 14 2 14 8 0 7
262 -1 283 -3 8 -3 18 0 21 5 5 8 279 3 301 -1 6 -2 12 -1 15 1 3 4 577 6
1275 2 699 6 1284 9 1300 3 17 8 50 11 75 9 82 15 125 20 140 2 8 7 29 10 45
2 17 14 66 25 110 11 44 22 89 25 99 18 78 92 276 143 386 17 36 31 70 32 75
1 6 11 22 21 36 10 15 22 35 26 45 22 52 178 301 203 324 3 3 21 26 40 53 18
26 37 47 42 47 4 0 8 4 8 10 0 21 258 286 345 355 28 21 55 44 60 50 6 6 31
25 57 43 25 18 52 38 60 44 17 17 156 108 164 108 3 0 25 13 48 28 46 31 269
142 285 142 6 0 11 5 11 10 0 6 3 9 8 9 4 -1 10 0 15 1 4 1 10 3 15 5 4 1 16
5 27 10 88 36 244 87 309 100 10 3 33 9 50 14 17 6 42 12 56 15 14 3 36 7 50
10 13 3 40 8 60 11 20 3 45 7 56 9 27 5 116 17 174 23 92 9 425 10 437 1 7 -5
14 -5 18 2 3 6 11 7 17 4 6 -4 29 -8 52 -10 69 -5 275 -37 318 -50 9 -3 25 -6
35 -8 67 -14 190 -50 202 -59 8 -7 17 -11 20 -10 6 3 63 -13 96 -27 11 -4 36
-14 55 -21 19 -7 68 -27 108 -45 40 -18 75 -33 77 -33 11 -1 293 -163 320
-183 6 -4 57 -42 115 -85 58 -42 110 -81 116 -87 6 -6 41 -37 77 -69 129 -113
228 -219 331 -352 43 -55 84 -108 92 -118 8 -10 20 -29 26 -43 6 -13 15 -24
20 -24 4 0 8 -4 8 -10 0 -5 17 -36 37 -67 86 -134 182 -332 238 -493 14 -41
30 -84 34 -95 9 -20 32 -99 37 -122 1 -7 9 -40 17 -75 9 -35 18 -76 21 -93 27
-147 30 -164 41 -265 3 -25 7 -116 10 -204 2 -87 6 -160 8 -163 3 -2 65 39
138 91 74 53 141 100 149 106 43 29 187 130 197 139 7 6 17 11 23 11 5 0 10 5
10 10 0 6 6 10 14 10 8 0 17 7 20 16 3 8 10 13 15 10 5 -4 11 -2 13 3 1 5 50
42 108 82 58 40 140 98 184 128 43 31 86 61 95 66 9 6 18 12 21 15 3 3 25 19
50 35 25 17 54 38 64 48 11 9 26 17 33 17 7 0 13 4 13 9 0 5 17 20 38 32 20
13 39 27 40 31 2 4 8 8 12 8 8 0 120 78 157 110 7 5 16 10 21 10 5 0 17 9 27
20 17 18 17 23 -5 112 -12 51 -24 100 -27 108 -3 8 -8 24 -10 35 -2 11 -10 37
-18 58 -8 20 -12 37 -10 37 3 0 1 8 -4 18 -6 11 -12 30 -15 43 -2 13 -12 44
-21 69 -9 25 -18 52 -20 60 -13 57 -208 506 -226 520 -3 3 -12 22 -20 43 -7
20 -17 37 -21 37 -4 0 -8 4 -8 8 0 11 -89 169 -117 209 -13 17 -23 36 -23 42
0 6 -4 11 -10 11 -5 0 -10 5 -10 10 0 24 -206 306 -339 465 -76 91 -402 425
-414 425 -4 0 -19 13 -34 28 -28 28 -193 161 -268 217 -22 16 -42 32 -45 35
-3 3 -32 23 -65 45 -33 21 -61 42 -63 47 -2 4 -9 8 -16 8 -7 0 -21 8 -32 18
-10 9 -30 23 -44 30 -14 7 -47 26 -75 44 -58 36 -90 54 -182 104 -37 20 -84
46 -103 58 -19 11 -36 20 -37 19 -1 -1 -42 16 -90 39 -95 43 -132 60 -148 64
-5 1 -30 11 -55 22 -58 25 -83 35 -92 36 -3 1 -10 4 -14 9 -4 4 -14 7 -22 7
-8 0 -28 6 -45 14 -29 13 -95 36 -122 42 -5 2 -57 17 -115 34 -58 17 -116 33
-130 36 -14 3 -70 16 -125 29 -55 13 -113 25 -130 28 -234 39 -290 46 -500 63
-72 6 -443 13 -448 8z"/>
<path d="M7598 6770 c-59 -41 -146 -102 -194 -135 -47 -33 -92 -64 -98 -70
-21 -18 -75 -55 -81 -55 -3 0 -13 -7 -22 -16 -10 -9 -121 -88 -248 -176 -278
-193 -267 -185 -321 -225 -24 -18 -49 -33 -54 -33 -6 0 -10 -3 -10 -7 0 -5
-12 -16 -28 -25 -15 -9 -54 -36 -88 -60 -33 -24 -87 -61 -120 -83 -32 -22 -61
-43 -64 -46 -3 -3 -48 -35 -100 -71 -112 -78 -517 -361 -542 -380 -10 -7 -47
-33 -83 -58 -35 -25 -65 -47 -65 -50 0 -8 3198 -6 3205 2 5 5 10 1514 6 1558
-1 3 -223 5 -494 5 l-493 0 -106 -75z"/>
<path d="M9199 6840 c-1 -3 -3 -624 -4 -1380 -2 -756 -6 -1391 -8 -1410 -10
-64 -18 -125 -22 -160 -2 -19 -6 -47 -9 -62 -3 -16 -8 -38 -10 -50 -2 -13 -9
-43 -15 -68 -5 -25 -12 -56 -15 -70 -2 -14 -12 -50 -22 -80 -9 -30 -17 -59
-19 -65 -3 -13 -5 -21 -45 -129 -18 -49 -39 -105 -48 -125 -9 -20 -15 -39 -14
-43 1 -5 -3 -8 -10 -8 -6 0 -9 -3 -6 -6 9 -8 -103 -225 -168 -326 -69 -108
-80 -125 -96 -142 -10 -11 -18 -23 -18 -28 0 -4 -8 -16 -17 -26 -10 -10 -31
-36 -48 -57 -66 -86 -134 -162 -215 -240 -108 -104 -153 -146 -190 -173 -19
-15 -37 -29 -40 -33 -6 -7 -112 -85 -158 -116 -18 -13 -37 -23 -42 -23 -6 0
-10 -4 -10 -8 0 -5 -11 -14 -25 -20 -14 -7 -31 -17 -38 -22 -14 -12 -80 -50
-147 -83 -25 -12 -48 -26 -51 -30 -3 -5 -12 -9 -20 -11 -8 -1 -41 -14 -74 -30
-83 -39 -139 -63 -170 -72 -5 -2 -37 -13 -70 -25 -67 -23 -184 -57 -230 -65
-16 -3 -38 -10 -47 -15 -9 -5 -21 -8 -25 -7 -4 1 -21 -1 -38 -5 -16 -4 -41 -8
-55 -11 -14 -2 -41 -7 -60 -10 -73 -13 -94 -15 -178 -23 -48 -4 -163 -7 -257
-7 -145 1 -202 4 -350 19 -25 2 -84 12 -150 25 -52 11 -75 16 -165 35 -8 2
-15 4 -15 5 0 1 -8 3 -18 5 -9 2 -56 16 -105 31 -118 37 -217 76 -362 142 -44
20 -283 153 -290 161 -3 3 -39 28 -80 56 -72 49 -201 149 -269 210 -44 39
-220 215 -216 215 2 0 -12 17 -31 38 -27 29 -118 145 -172 217 -31 43 -102
157 -102 165 0 5 -4 10 -10 10 -5 0 -10 5 -10 11 0 6 -9 24 -21 40 -11 16 -17
29 -12 29 4 0 3 4 -2 8 -6 4 -16 18 -23 32 -6 14 -16 32 -21 40 -5 8 -19 38
-32 65 -12 28 -33 75 -47 105 -41 93 -122 337 -136 410 -2 14 -7 32 -10 40 -3
8 -7 29 -10 45 -2 17 -10 56 -16 87 -14 71 -19 107 -26 183 -3 33 -7 61 -9 63
-3 4 -49 -23 -72 -43 -7 -5 -19 -16 -27 -22 -8 -7 -20 -13 -26 -13 -5 0 -10
-4 -10 -10 0 -5 -4 -10 -9 -10 -5 0 -48 -28 -96 -62 -47 -35 -97 -69 -110 -76
-14 -7 -25 -17 -25 -21 0 -4 -11 -13 -25 -19 -14 -7 -31 -17 -38 -22 -22 -20
-208 -150 -213 -150 -3 0 -12 -6 -19 -12 -22 -20 -37 -31 -85 -63 -53 -36 -56
-37 -96 -70 -18 -14 -34 -25 -37 -25 -5 0 -188 -127 -212 -148 -5 -4 -39 -28
-75 -52 -36 -24 -67 -46 -70 -49 -3 -4 -32 -24 -65 -46 -68 -45 -85 -60 -85
-72 0 -19 84 -262 132 -382 27 -69 77 -182 110 -251 33 -69 59 -127 58 -129
-1 -2 2 -7 7 -10 5 -3 14 -17 20 -31 10 -21 29 -54 97 -175 54 -96 261 -398
301 -441 5 -6 21 -26 35 -45 14 -18 35 -44 48 -57 12 -12 22 -25 22 -27 0 -3
8 -13 18 -24 9 -10 46 -51 82 -91 96 -107 214 -225 315 -315 50 -44 92 -82 95
-85 3 -3 41 -35 85 -70 44 -36 82 -68 83 -72 2 -5 8 -8 13 -8 8 0 80 -51 99
-70 9 -9 220 -150 225 -150 2 0 23 -13 47 -29 83 -55 401 -220 518 -269 30
-13 66 -28 80 -35 14 -6 27 -11 30 -12 6 -2 29 -11 96 -37 29 -11 58 -20 65
-22 8 -1 19 -4 24 -7 8 -5 107 -40 125 -44 43 -11 68 -20 79 -29 8 -6 16 -9
18 -8 7 7 83 -10 89 -19 3 -5 10 -7 15 -4 5 4 15 3 21 -1 7 -5 19 -9 28 -10 8
-2 79 -16 158 -33 132 -27 197 -39 262 -46 14 -2 25 -4 25 -5 0 -2 31 -6 110
-13 33 -4 96 -9 140 -14 102 -9 531 -10 650 -1 153 13 199 17 225 23 14 3 45
8 70 10 25 2 59 6 75 9 17 3 46 9 65 12 70 12 86 15 148 29 34 8 76 17 94 20
17 3 34 8 38 10 3 2 18 6 32 9 51 9 393 117 463 147 17 6 35 13 40 14 6 2 31
12 55 23 25 11 79 34 120 52 152 66 500 252 508 272 2 4 8 8 13 8 15 0 284
183 354 241 194 160 291 246 404 359 127 128 252 260 244 260 -1 0 6 10 16 23
61 70 71 83 71 91 0 5 3 7 6 3 4 -3 16 8 28 26 28 41 184 259 194 272 4 6 17
26 28 45 10 19 25 41 32 48 6 7 12 17 12 22 0 5 6 15 13 22 7 7 18 24 25 38
18 37 48 88 61 103 6 8 8 17 4 20 -3 4 -2 7 3 7 6 0 16 16 24 35 8 19 17 35
22 35 4 0 7 3 6 8 -1 4 26 63 59 132 34 69 80 172 103 230 23 58 49 125 59
150 17 41 75 223 115 360 9 30 18 69 21 85 2 17 8 45 14 63 5 17 8 32 5 32 -3
0 0 8 5 19 6 10 13 37 16 59 2 23 9 60 14 84 5 24 12 60 15 81 14 92 18 112
23 120 2 4 -1 7 -8 7 -8 0 -9 4 0 13 6 7 12 41 13 75 2 34 5 62 8 62 3 0 7 28
9 63 7 130 12 2897 4 2898 -48 3 -153 3 -153 -1 0 -7 -70 -4 -77 3 -3 3 -16 2
-29 -3 -13 -5 -24 -6 -24 -2 0 9 -52 8 -67 -1 -6 -4 -13 -4 -17 0 -9 9 -66 9
-66 0 0 -5 -5 -5 -11 -1 -17 10 -129 11 -129 0 0 -5 -5 -5 -12 0 -16 11 -68
11 -85 1 -7 -5 -13 -5 -13 0 0 7 -218 10 -245 3 -5 -1 -14 -1 -20 0 -32 7
-151 3 -157 -5 -5 -7 -8 -7 -8 0 0 9 -134 13 -165 5 -5 -1 -12 -1 -15 0 -11 5
-260 5 -261 0z"/>
</g>
</svg>
