<?xml version="1.0" encoding="UTF-8" standalone="no"?>
<!DOCTYPE svg PUBLIC "-//W3C//DTD SVG 1.1//EN"
 "http://www.w3.org/Graphics/SVG/1.1/DTD/svg11.dtd">
<!-- Generated by graphviz version 2.44.0 (20200408.0750)
 -->
<!-- Pages: 1 -->
<svg width="905pt" height="476pt"
 viewBox="0.00 0.00 905.29 476.00" xmlns="http://www.w3.org/2000/svg" xmlns:xlink="http://www.w3.org/1999/xlink">
<g id="graph0" class="graph" transform="scale(1 1) rotate(0) translate(4 472)">
<polygon fill="white" stroke="transparent" points="-4,4 -4,-472 901.29,-472 901.29,4 -4,4"/>
<!-- [root] aws_cloudfront_distribution.www_distribution -->
<g id="node1" class="node">
<title>[root] aws_cloudfront_distribution.www_distribution</title>
<polygon fill="none" stroke="black" points="520.5,-180 248.5,-180 248.5,-144 520.5,-144 520.5,-180"/>
<text text-anchor="middle" x="384.5" y="-158.3" font-family="Times,serif" font-size="14.00">aws_cloudfront_distribution.www_distribution</text>
</g>
<!-- [root] aws_s3_bucket.www -->
<g id="node3" class="node">
<title>[root] aws_s3_bucket.www</title>
<polygon fill="none" stroke="black" points="222.5,-108 90.5,-108 90.5,-72 222.5,-72 222.5,-108"/>
<text text-anchor="middle" x="156.5" y="-86.3" font-family="Times,serif" font-size="14.00">aws_s3_bucket.www</text>
</g>
<!-- [root] aws_cloudfront_distribution.www_distribution&#45;&gt;[root] aws_s3_bucket.www -->
<g id="edge1" class="edge">
<title>[root] aws_cloudfront_distribution.www_distribution&#45;&gt;[root] aws_s3_bucket.www</title>
<path fill="none" stroke="black" d="M329.02,-143.97C296.74,-134.06 255.89,-121.51 222.04,-111.12"/>
<polygon fill="black" stroke="black" points="222.82,-107.7 212.23,-108.11 220.76,-114.39 222.82,-107.7"/>
</g>
<!-- [root] data.terraform_remote_state.root -->
<g id="node4" class="node">
<title>[root] data.terraform_remote_state.root</title>
<polygon fill="none" stroke="black" points="563,-108 366,-108 366,-72 563,-72 563,-108"/>
<text text-anchor="middle" x="464.5" y="-86.3" font-family="Times,serif" font-size="14.00">data.terraform_remote_state.root</text>
</g>
<!-- [root] aws_cloudfront_distribution.www_distribution&#45;&gt;[root] data.terraform_remote_state.root -->
<g id="edge2" class="edge">
<title>[root] aws_cloudfront_distribution.www_distribution&#45;&gt;[root] data.terraform_remote_state.root</title>
<path fill="none" stroke="black" d="M404.28,-143.7C414.25,-134.97 426.51,-124.24 437.36,-114.75"/>
<polygon fill="black" stroke="black" points="439.73,-117.32 444.95,-108.1 435.12,-112.06 439.73,-117.32"/>
</g>
<!-- [root] aws_route53_record.www -->
<g id="node2" class="node">
<title>[root] aws_route53_record.www</title>
<polygon fill="none" stroke="black" points="629.5,-252 469.5,-252 469.5,-216 629.5,-216 629.5,-252"/>
<text text-anchor="middle" x="549.5" y="-230.3" font-family="Times,serif" font-size="14.00">aws_route53_record.www</text>
</g>
<!-- [root] aws_route53_record.www&#45;&gt;[root] aws_cloudfront_distribution.www_distribution -->
<g id="edge3" class="edge">
<title>[root] aws_route53_record.www&#45;&gt;[root] aws_cloudfront_distribution.www_distribution</title>
<path fill="none" stroke="black" d="M509.14,-215.88C486.48,-206.26 458.03,-194.19 434.03,-184.01"/>
<polygon fill="black" stroke="black" points="435.31,-180.75 424.73,-180.07 432.57,-187.2 435.31,-180.75"/>
</g>
<!-- [root] provider.aws -->
<g id="node9" class="node">
<title>[root] provider.aws</title>
<polygon fill="none" stroke="black" points="248.5,-36 169.4,-18 248.5,0 327.6,-18 248.5,-36"/>
<text text-anchor="middle" x="248.5" y="-14.3" font-family="Times,serif" font-size="14.00">provider.aws</text>
</g>
<!-- [root] aws_s3_bucket.www&#45;&gt;[root] provider.aws -->
<g id="edge4" class="edge">
<title>[root] aws_s3_bucket.www&#45;&gt;[root] provider.aws</title>
<path fill="none" stroke="black" d="M179.24,-71.7C192.55,-61.57 209.38,-48.76 223.12,-38.31"/>
<polygon fill="black" stroke="black" points="225.38,-40.99 231.21,-32.15 221.14,-35.42 225.38,-40.99"/>
</g>
<!-- [root] var.www_domain_name -->
<g id="node12" class="node">
<title>[root] var.www_domain_name</title>
<polygon fill="none" stroke="black" points="145,-36 0,-36 0,0 151,0 151,-30 145,-36"/>
<polyline fill="none" stroke="black" points="145,-36 145,-30 "/>
<polyline fill="none" stroke="black" points="151,-30 145,-30 "/>
<text text-anchor="middle" x="75.5" y="-14.3" font-family="Times,serif" font-size="14.00">var.www_domain_name</text>
</g>
<!-- [root] aws_s3_bucket.www&#45;&gt;[root] var.www_domain_name -->
<g id="edge5" class="edge">
<title>[root] aws_s3_bucket.www&#45;&gt;[root] var.www_domain_name</title>
<path fill="none" stroke="black" d="M136.48,-71.7C126.37,-62.97 113.96,-52.24 102.98,-42.75"/>
<polygon fill="black" stroke="black" points="105.15,-39.99 95.29,-36.1 100.57,-45.29 105.15,-39.99"/>
</g>
<!-- [root] provider.terraform -->
<g id="node10" class="node">
<title>[root] provider.terraform</title>
<polygon fill="none" stroke="black" points="464.5,-36 356.92,-18 464.5,0 572.08,-18 464.5,-36"/>
<text text-anchor="middle" x="464.5" y="-14.3" font-family="Times,serif" font-size="14.00">provider.terraform</text>
</g>
<!-- [root] data.terraform_remote_state.root&#45;&gt;[root] provider.terraform -->
<g id="edge6" class="edge">
<title>[root] data.terraform_remote_state.root&#45;&gt;[root] provider.terraform</title>
<path fill="none" stroke="black" d="M464.5,-71.7C464.5,-63.98 464.5,-54.71 464.5,-46.11"/>
<polygon fill="black" stroke="black" points="468,-46.1 464.5,-36.1 461,-46.1 468,-46.1"/>
</g>
<!-- [root] output.cloudfront_url -->
<g id="node5" class="node">
<title>[root] output.cloudfront_url</title>
<polygon fill="none" stroke="black" points="445,-252 318,-252 318,-216 451,-216 451,-246 445,-252"/>
<polyline fill="none" stroke="black" points="445,-252 445,-246 "/>
<polyline fill="none" stroke="black" points="451,-246 445,-246 "/>
<text text-anchor="middle" x="384.5" y="-230.3" font-family="Times,serif" font-size="14.00">output.cloudfront_url</text>
</g>
<!-- [root] output.cloudfront_url&#45;&gt;[root] aws_cloudfront_distribution.www_distribution -->
<g id="edge12" class="edge">
<title>[root] output.cloudfront_url&#45;&gt;[root] aws_cloudfront_distribution.www_distribution</title>
<path fill="none" stroke="black" d="M384.5,-215.7C384.5,-207.98 384.5,-198.71 384.5,-190.11"/>
<polygon fill="black" stroke="black" points="388,-190.1 384.5,-180.1 381,-190.1 388,-190.1"/>
</g>
<!-- [root] output.cloudfront_www_id -->
<g id="node6" class="node">
<title>[root] output.cloudfront_www_id</title>
<polygon fill="none" stroke="black" points="293.5,-252 135.5,-252 135.5,-216 299.5,-216 299.5,-246 293.5,-252"/>
<polyline fill="none" stroke="black" points="293.5,-252 293.5,-246 "/>
<polyline fill="none" stroke="black" points="299.5,-246 293.5,-246 "/>
<text text-anchor="middle" x="217.5" y="-230.3" font-family="Times,serif" font-size="14.00">output.cloudfront_www_id</text>
</g>
<!-- [root] output.cloudfront_www_id&#45;&gt;[root] aws_cloudfront_distribution.www_distribution -->
<g id="edge13" class="edge">
<title>[root] output.cloudfront_www_id&#45;&gt;[root] aws_cloudfront_distribution.www_distribution</title>
<path fill="none" stroke="black" d="M258.35,-215.88C281.28,-206.26 310.08,-194.19 334.37,-184.01"/>
<polygon fill="black" stroke="black" points="335.91,-187.16 343.78,-180.07 333.2,-180.71 335.91,-187.16"/>
</g>
<!-- [root] output.s3_website_url -->
<g id="node7" class="node">
<title>[root] output.s3_website_url</title>
<polygon fill="none" stroke="black" points="197,-180 66,-180 66,-144 203,-144 203,-174 197,-180"/>
<polyline fill="none" stroke="black" points="197,-180 197,-174 "/>
<polyline fill="none" stroke="black" points="203,-174 197,-174 "/>
<text text-anchor="middle" x="134.5" y="-158.3" font-family="Times,serif" font-size="14.00">output.s3_website_url</text>
</g>
<!-- [root] output.s3_website_url&#45;&gt;[root] aws_s3_bucket.www -->
<g id="edge14" class="edge">
<title>[root] output.s3_website_url&#45;&gt;[root] aws_s3_bucket.www</title>
<path fill="none" stroke="black" d="M139.94,-143.7C142.39,-135.9 145.34,-126.51 148.07,-117.83"/>
<polygon fill="black" stroke="black" points="151.46,-118.69 151.12,-108.1 144.79,-116.59 151.46,-118.69"/>
</g>
<!-- [root] output.site_url -->
<g id="node8" class="node">
<title>[root] output.site_url</title>
<polygon fill="none" stroke="black" points="528,-324 439,-324 439,-288 534,-288 534,-318 528,-324"/>
<polyline fill="none" stroke="black" points="528,-324 528,-318 "/>
<polyline fill="none" stroke="black" points="534,-318 528,-318 "/>
<text text-anchor="middle" x="486.5" y="-302.3" font-family="Times,serif" font-size="14.00">output.site_url</text>
</g>
<!-- [root] output.site_url&#45;&gt;[root] aws_route53_record.www -->
<g id="edge15" class="edge">
<title>[root] output.site_url&#45;&gt;[root] aws_route53_record.www</title>
<path fill="none" stroke="black" d="M502.07,-287.7C509.7,-279.22 519.02,-268.86 527.38,-259.58"/>
<polygon fill="black" stroke="black" points="530.02,-261.88 534.11,-252.1 524.81,-257.2 530.02,-261.88"/>
</g>
<!-- [root] var.root_domain_name -->
<g id="node11" class="node">
<title>[root] var.root_domain_name</title>
<polygon fill="none" stroke="black" points="364,-324 227,-324 227,-288 370,-288 370,-318 364,-324"/>
<polyline fill="none" stroke="black" points="364,-324 364,-318 "/>
<polyline fill="none" stroke="black" points="370,-318 364,-318 "/>
<text text-anchor="middle" x="298.5" y="-302.3" font-family="Times,serif" font-size="14.00">var.root_domain_name</text>
</g>
<!-- [root] meta.count&#45;boundary (EachMode fixup) -->
<g id="node13" class="node">
<title>[root] meta.count&#45;boundary (EachMode fixup)</title>
<ellipse fill="none" stroke="black" cx="298.5" cy="-378" rx="176.27" ry="18"/>
<text text-anchor="middle" x="298.5" y="-374.3" font-family="Times,serif" font-size="14.00">[root] meta.count&#45;boundary (EachMode fixup)</text>
</g>
<!-- [root] meta.count&#45;boundary (EachMode fixup)&#45;&gt;[root] output.cloudfront_url -->
<g id="edge7" class="edge">
<title>[root] meta.count&#45;boundary (EachMode fixup)&#45;&gt;[root] output.cloudfront_url</title>
<path fill="none" stroke="black" d="M337.9,-360.41C353.23,-351.86 369.29,-339.84 378.5,-324 389.3,-305.42 390.15,-280.83 388.67,-262.21"/>
<polygon fill="black" stroke="black" points="392.13,-261.6 387.59,-252.02 385.17,-262.34 392.13,-261.6"/>
</g>
<!-- [root] meta.count&#45;boundary (EachMode fixup)&#45;&gt;[root] output.cloudfront_www_id -->
<g id="edge8" class="edge">
<title>[root] meta.count&#45;boundary (EachMode fixup)&#45;&gt;[root] output.cloudfront_www_id</title>
<path fill="none" stroke="black" d="M257.24,-360.35C241.9,-351.89 226.13,-339.97 217.5,-324 207.32,-305.17 208.16,-280.64 211.07,-262.11"/>
<polygon fill="black" stroke="black" points="214.52,-262.71 212.9,-252.24 207.64,-261.43 214.52,-262.71"/>
</g>
<!-- [root] meta.count&#45;boundary (EachMode fixup)&#45;&gt;[root] output.s3_website_url -->
<g id="edge9" class="edge">
<title>[root] meta.count&#45;boundary (EachMode fixup)&#45;&gt;[root] output.s3_website_url</title>
<path fill="none" stroke="black" d="M254.54,-360.42C211.97,-341.57 150.43,-306.2 126.5,-252 117.87,-232.45 120.84,-208.18 125.43,-189.92"/>
<polygon fill="black" stroke="black" points="128.82,-190.78 128.16,-180.2 122.08,-188.88 128.82,-190.78"/>
</g>
<!-- [root] meta.count&#45;boundary (EachMode fixup)&#45;&gt;[root] output.site_url -->
<g id="edge10" class="edge">
<title>[root] meta.count&#45;boundary (EachMode fixup)&#45;&gt;[root] output.site_url</title>
<path fill="none" stroke="black" d="M343.05,-360.41C369.38,-350.61 402.93,-338.12 430.97,-327.68"/>
<polygon fill="black" stroke="black" points="432.48,-330.85 440.63,-324.08 430.04,-324.29 432.48,-330.85"/>
</g>
<!-- [root] meta.count&#45;boundary (EachMode fixup)&#45;&gt;[root] var.root_domain_name -->
<g id="edge11" class="edge">
<title>[root] meta.count&#45;boundary (EachMode fixup)&#45;&gt;[root] var.root_domain_name</title>
<path fill="none" stroke="black" d="M298.5,-359.7C298.5,-351.98 298.5,-342.71 298.5,-334.11"/>
<polygon fill="black" stroke="black" points="302,-334.1 298.5,-324.1 295,-334.1 302,-334.1"/>
</g>
<!-- [root] provider.aws (close) -->
<g id="node14" class="node">
<title>[root] provider.aws (close)</title>
<ellipse fill="none" stroke="black" cx="597.5" cy="-378" rx="104.78" ry="18"/>
<text text-anchor="middle" x="597.5" y="-374.3" font-family="Times,serif" font-size="14.00">[root] provider.aws (close)</text>
</g>
<!-- [root] provider.aws (close)&#45;&gt;[root] aws_route53_record.www -->
<g id="edge16" class="edge">
<title>[root] provider.aws (close)&#45;&gt;[root] aws_route53_record.www</title>
<path fill="none" stroke="black" d="M591.71,-359.87C583.49,-335.56 568.37,-290.82 558.63,-262.01"/>
<polygon fill="black" stroke="black" points="561.83,-260.54 555.31,-252.19 555.2,-262.78 561.83,-260.54"/>
</g>
<!-- [root] provider.terraform (close) -->
<g id="node15" class="node">
<title>[root] provider.terraform (close)</title>
<ellipse fill="none" stroke="black" cx="772.5" cy="-234" rx="124.58" ry="18"/>
<text text-anchor="middle" x="772.5" y="-230.3" font-family="Times,serif" font-size="14.00">[root] provider.terraform (close)</text>
</g>
<!-- [root] provider.terraform (close)&#45;&gt;[root] data.terraform_remote_state.root -->
<g id="edge17" class="edge">
<title>[root] provider.terraform (close)&#45;&gt;[root] data.terraform_remote_state.root</title>
<path fill="none" stroke="black" d="M737.17,-216.71C681.41,-191 572.98,-141.02 510.98,-112.43"/>
<polygon fill="black" stroke="black" points="512.36,-109.21 501.81,-108.2 509.43,-115.57 512.36,-109.21"/>
</g>
<!-- [root] root -->
<g id="node16" class="node">
<title>[root] root</title>
<ellipse fill="none" stroke="black" cx="597.5" cy="-450" rx="47.39" ry="18"/>
<text text-anchor="middle" x="597.5" y="-446.3" font-family="Times,serif" font-size="14.00">[root] root</text>
</g>
<!-- [root] root&#45;&gt;[root] meta.count&#45;boundary (EachMode fixup) -->
<g id="edge18" class="edge">
<title>[root] root&#45;&gt;[root] meta.count&#45;boundary (EachMode fixup)</title>
<path fill="none" stroke="black" d="M558.1,-439.78C511.78,-428.93 433.82,-410.68 375.39,-397"/>
<polygon fill="black" stroke="black" points="375.99,-393.55 365.46,-394.68 374.4,-400.36 375.99,-393.55"/>
</g>
<!-- [root] root&#45;&gt;[root] provider.aws (close) -->
<g id="edge19" class="edge">
<title>[root] root&#45;&gt;[root] provider.aws (close)</title>
<path fill="none" stroke="black" d="M597.5,-431.7C597.5,-423.98 597.5,-414.71 597.5,-406.11"/>
<polygon fill="black" stroke="black" points="601,-406.1 597.5,-396.1 594,-406.1 601,-406.1"/>
</g>
<!-- [root] root&#45;&gt;[root] provider.terraform (close) -->
<g id="edge20" class="edge">
<title>[root] root&#45;&gt;[root] provider.terraform (close)</title>
<path fill="none" stroke="black" d="M635.84,-439.31C660.38,-431.34 691.29,-417.74 711.5,-396 746.91,-357.91 762.36,-297.22 768.63,-262.25"/>
<polygon fill="black" stroke="black" points="772.1,-262.71 770.29,-252.27 765.2,-261.56 772.1,-262.71"/>
</g>
</g>
</svg>
